<svg xmlns="http://www.w3.org/2000/svg" viewBox="0 0 2974.07 782.24"><defs><style>.cls-1{fill:#07f;}</style></defs><g id="Layer_2" data-name="Layer 2"><g id="Layer_1-2" data-name="Layer 1"><path class="cls-1" d="M0,694.72,53.06,562.9C110,609.37,194.87,641.78,275.9,641.78c92.61,0,130.23-34.58,130.23-81,0-141.54-392.62-44.3-392.62-325.22C13.51,107,106.12,0,298.09,0,383,0,469.8,22.69,532.51,67L484.27,199.88c-62.7-40-127.33-59.42-187.14-59.42-92.62,0-128.31,38.89-128.31,86.43,0,139.38,392.63,43.22,392.63,320.89,0,126.41-93.58,234.46-286.51,234.46C167.86,782.24,59.81,746.58,0,694.72Z"/><path class="cls-1" d="M1121.91,526.17H729.28c14.47,72.39,69.46,116.69,148.56,116.69,55,0,94.54-18.37,130.24-56.18l80.07,97.23c-48.24,61.59-120.59,94-214.17,94-179.43,0-296.16-126.41-296.16-299.28,0-173.95,118.66-299.28,276.87-299.28,152.42,0,270.11,114.53,270.11,301.44C1124.8,493.76,1122.88,512.12,1121.91,526.17ZM727.35,427.85H983c-10.61-73.47-59.8-121-127.33-121C787.16,306.84,738,353.3,727.35,427.85Z"/><path class="cls-1" d="M1628.37,437.58V769.27H1487.52V696.88c-28,52.94-82,81-158.21,81-121.55,0-193.91-75.63-193.91-176.11,0-102.64,64.64-173.95,222.85-173.95h119.62c0-72.39-38.59-114.52-119.62-114.52-55,0-111.9,20.52-149.53,54l-54-117.77c56.92-45.38,140.84-70.23,223.81-70.23C1536.72,179.35,1628.37,261.47,1628.37,437.58Zm-150.5,148V526.17H1374.65c-70.42,0-92.61,29.17-92.61,68.07,0,42.13,31.83,70.23,84.89,70.23C1417.1,664.47,1460.51,638.54,1477.87,585.59Z"/><path class="cls-1" d="M2057.63,741.18c-30.87,24.85-76.21,36.73-122.51,36.73-122.52,0-193.91-70.22-193.91-208.52V330.61h-80.07V201h80.07V59.42H1891.7V201H2021V330.61H1891.7V567.23c0,49.7,24.12,76.71,64.64,76.71,22.19,0,44.38-7.57,60.78-21.61Z"/><path class="cls-1" d="M2590.14,526.17H2197.51C2212,598.56,2267,642.86,2346.07,642.86c55,0,94.55-18.37,130.23-56.18l80.07,97.23c-48.23,61.59-120.58,94-214.16,94-179.43,0-296.15-126.41-296.15-299.28,0-173.95,118.65-299.28,276.86-299.28,152.42,0,270.11,114.53,270.11,301.44C2593,493.76,2591.1,512.12,2590.14,526.17Zm-394.56-98.32h255.65c-10.61-73.47-59.82-121-127.35-121C2255.39,306.84,2206.19,353.3,2195.58,427.85Z"/><path class="cls-1" d="M2974.07,179.35V334.94c-12.53-1.09-22.19-2.16-33.76-2.16-83,0-137.95,50.78-137.95,162.06V769.27H2651.87V188h143.74v76.71C2832.27,208.53,2894,179.35,2974.07,179.35Z"/></g></g></svg>